<svg width="69" height="68" viewBox="0 0 69 68" fill="none" xmlns="http://www.w3.org/2000/svg">
<path d="M31.6667 17.0001H40.1667L49.4883 7.65011C49.7517 7.38454 50.0651 7.17376 50.4104 7.02991C50.7556 6.88607 51.126 6.81201 51.5 6.81201C51.874 6.81201 52.2444 6.88607 52.5896 7.02991C52.9349 7.17376 53.2483 7.38454 53.5117 7.65011L60.8217 14.9884C61.3494 15.5193 61.6456 16.2374 61.6456 16.9859C61.6456 17.7345 61.3494 18.4526 60.8217 18.9834L54.3333 25.5001H31.6667V31.1668C31.6667 31.9182 31.3682 32.6389 30.8368 33.1702C30.3055 33.7016 29.5848 34.0001 28.8333 34.0001C28.0819 34.0001 27.3612 33.7016 26.8299 33.1702C26.2985 32.6389 26 31.9182 26 31.1668V22.6668C26 21.1639 26.597 19.7225 27.6597 18.6598C28.7224 17.5971 30.1638 17.0001 31.6667 17.0001ZM14.6667 31.1668V42.5001L8.17834 48.9884C7.65063 49.5193 7.35443 50.2374 7.35443 50.9859C7.35443 51.7345 7.65063 52.4526 8.17834 52.9834L15.4883 60.3218C15.7517 60.5873 16.0651 60.7981 16.4104 60.942C16.7556 61.0858 17.126 61.1599 17.5 61.1599C17.874 61.1599 18.2444 61.0858 18.5896 60.942C18.9349 60.7981 19.2483 60.5873 19.5117 60.3218L31.6667 48.1668H43C43.7515 48.1668 44.4721 47.8683 45.0035 47.3369C45.5348 46.8056 45.8333 46.0849 45.8333 45.3334V42.5001H48.6667C49.4181 42.5001 50.1388 42.2016 50.6702 41.6702C51.2015 41.1389 51.5 40.4182 51.5 39.6668V36.8334H54.3333C55.0848 36.8334 55.8055 36.5349 56.3368 36.0036C56.8682 35.4722 57.1667 34.7516 57.1667 34.0001V31.1668H37.3333V34.0001C37.3333 35.503 36.7363 36.9443 35.6736 38.007C34.6109 39.0698 33.1696 39.6668 31.6667 39.6668H26C24.4971 39.6668 23.0558 39.0698 21.9931 38.007C20.9304 36.9443 20.3333 35.503 20.3333 34.0001V25.5001L14.6667 31.1668Z" fill="#C4AE41"/>
</svg>
