<svg width="32" height="33" viewBox="0 0 32 33" fill="none" xmlns="http://www.w3.org/2000/svg">
<path d="M16 0.75C7.30234 0.75 0.25 7.80234 0.25 16.5C0.25 25.1977 7.30234 32.25 16 32.25C24.6977 32.25 31.75 25.1977 31.75 16.5C31.75 7.80234 24.6977 0.75 16 0.75ZM23.5691 12.6223C23.5797 12.7875 23.5797 12.9598 23.5797 13.1285C23.5797 18.2895 19.6492 24.2344 12.4668 24.2344C10.252 24.2344 8.19883 23.591 6.46914 22.4836C6.78555 22.5188 7.08789 22.5328 7.41133 22.5328C9.23945 22.5328 10.9199 21.9141 12.2594 20.8664C10.5437 20.8313 9.10234 19.7063 8.61016 18.1594C9.21133 18.2473 9.75273 18.2473 10.3715 18.0891C9.4881 17.9096 8.69409 17.4298 8.12435 16.7313C7.55462 16.0327 7.24429 15.1585 7.24609 14.257V14.2078C7.76289 14.4996 8.37109 14.6789 9.00742 14.7035C8.47249 14.347 8.0338 13.864 7.73023 13.2974C7.42667 12.7307 7.26762 12.0979 7.26719 11.4551C7.26719 10.7273 7.45703 10.0629 7.79805 9.48633C8.77856 10.6934 10.0021 11.6806 11.3891 12.3838C12.7762 13.087 14.2957 13.4905 15.8488 13.568C15.2969 10.9137 17.2797 8.76562 19.6633 8.76562C20.7883 8.76562 21.8008 9.23672 22.5145 9.99609C23.3969 9.83086 24.2406 9.50039 24.993 9.05742C24.7012 9.96094 24.0895 10.7238 23.2773 11.2055C24.0648 11.1211 24.8242 10.9031 25.5273 10.5973C24.9965 11.3777 24.332 12.0703 23.5691 12.6223Z" fill="white"/>
</svg>
