<svg width="32" height="31" viewBox="0 0 32 31" fill="none" xmlns="http://www.w3.org/2000/svg">
<path d="M20.8 15.5C20.8 16.773 20.2943 17.9939 19.3941 18.8941C18.494 19.7943 17.2731 20.3 16 20.3C14.727 20.3 13.5061 19.7943 12.6059 18.8941C11.7057 17.9939 11.2 16.773 11.2 15.5C11.2011 15.2259 11.2272 14.9592 11.2784 14.7H9.60001V21.0952C9.60001 21.54 9.96001 21.9 10.4048 21.9H21.5968C21.81 21.8996 22.0143 21.8146 22.1649 21.6637C22.3154 21.5128 22.4 21.3084 22.4 21.0952V14.7H20.7216C20.7728 14.9592 20.7989 15.2259 20.8 15.5ZM16 18.7C16.4204 18.6999 16.8365 18.617 17.2248 18.456C17.6131 18.2951 17.9659 18.0592 18.2631 17.7619C18.5602 17.4646 18.7959 17.1117 18.9567 16.7234C19.1174 16.335 19.2001 15.9187 19.2 15.4984C19.1999 15.0781 19.117 14.6619 18.9561 14.2736C18.7951 13.8853 18.5593 13.5325 18.262 13.2353C17.9647 12.9382 17.6117 12.7025 17.2234 12.5417C16.835 12.381 16.4187 12.2983 15.9984 12.2984C15.1495 12.2986 14.3355 12.636 13.7353 13.2365C13.1352 13.8369 12.7982 14.6511 12.7984 15.5C12.7986 16.3489 13.1361 17.163 13.7365 17.7631C14.3369 18.3632 15.1511 18.7002 16 18.7ZM19.84 12.14H21.7584C21.8216 12.1402 21.8842 12.1279 21.9426 12.1039C22.001 12.0799 22.0541 12.0446 22.0989 12C22.1436 11.9554 22.1791 11.9024 22.2033 11.8441C22.2275 11.7857 22.24 11.7232 22.24 11.66V9.7416C22.2402 9.6783 22.2279 9.61557 22.2038 9.55705C22.1797 9.49852 22.1442 9.44535 22.0994 9.40059C22.0547 9.35582 22.0015 9.32036 21.943 9.29623C21.8844 9.2721 21.8217 9.25979 21.7584 9.26H19.84C19.7767 9.25979 19.714 9.2721 19.6555 9.29623C19.5969 9.32036 19.5438 9.35582 19.499 9.40059C19.4542 9.44535 19.4188 9.49852 19.3946 9.55705C19.3705 9.61557 19.3582 9.6783 19.3584 9.7416V11.66C19.36 11.924 19.576 12.14 19.84 12.14ZM16 0.139999C11.9263 0.139999 8.01941 1.75828 5.13885 4.63884C2.2583 7.5194 0.640015 11.4263 0.640015 15.5C0.640015 19.5737 2.2583 23.4806 5.13885 26.3612C8.01941 29.2417 11.9263 30.86 16 30.86C18.0171 30.86 20.0145 30.4627 21.878 29.6908C23.7416 28.9189 25.4349 27.7875 26.8612 26.3612C28.2875 24.9349 29.4189 23.2416 30.1908 21.378C30.9627 19.5145 31.36 17.5171 31.36 15.5C31.36 13.4829 30.9627 11.4855 30.1908 9.62198C29.4189 7.75842 28.2875 6.06515 26.8612 4.63884C25.4349 3.21253 23.7416 2.08112 21.878 1.30921C20.0145 0.537298 18.0171 0.139999 16 0.139999ZM24 21.7224C24 22.7 23.2 23.5 22.2224 23.5H9.77761C8.80001 23.5 8.00001 22.7 8.00001 21.7224V9.2776C8.00001 8.3 8.80001 7.5 9.77761 7.5H22.2224C23.2 7.5 24 8.3 24 9.2776V21.7224Z" fill="white"/>
</svg>
