<svg width="90" height="85" viewBox="0 0 90 85" fill="none" xmlns="http://www.w3.org/2000/svg">
<path d="M45 0.25C39.3909 0.25 34.4 3.78333 32.545 9.08333H5.25004V17.9167H13.8625L0.833378 48.8333C-1.24245 57.6667 5.25004 62.0833 16.2917 62.0833C27.3334 62.0833 34.2234 57.6667 31.75 48.8333L18.7209 17.9167H32.5009C33.9584 21.6708 36.8292 24.5417 40.5834 25.9992V75.3333H0.833378V84.1667H89.1667V75.3333H49.4167V25.955C53.1709 24.5417 56.0417 21.6708 57.455 17.9167H71.2792L58.25 48.8333C56.1742 57.6667 62.6667 62.0833 73.7084 62.0833C84.75 62.0833 91.64 57.6667 89.1667 48.8333L76.1375 17.9167H84.75V9.08333H57.4992C55.6 3.78333 50.6092 0.25 45 0.25ZM45 9.08333C46.1714 9.08333 47.2948 9.54866 48.1231 10.3769C48.9514 11.2052 49.4167 12.3286 49.4167 13.5C49.4167 14.6714 48.9514 15.7948 48.1231 16.6231C47.2948 17.4513 46.1714 17.9167 45 17.9167C43.8287 17.9167 42.7053 17.4513 41.877 16.6231C41.0487 15.7948 40.5834 14.6714 40.5834 13.5C40.5834 12.3286 41.0487 11.2052 41.877 10.3769C42.7053 9.54866 43.8287 9.08333 45 9.08333ZM16.2917 32.2708L22.9167 48.8333H9.66671L16.2917 32.2708ZM73.7084 32.2708L80.3334 48.8333H67.0834L73.7084 32.2708Z" fill="#C4AE41"/>
</svg>
