<svg width="32" height="31" viewBox="0 0 32 31" fill="none" xmlns="http://www.w3.org/2000/svg">
<path d="M16 0.139999C7.51682 0.139999 0.640015 7.0168 0.640015 15.5C0.640015 23.9832 7.51682 30.86 16 30.86C24.4832 30.86 31.36 23.9832 31.36 15.5C31.36 7.0168 24.4832 0.139999 16 0.139999ZM12.24 21.8664H9.12961V11.8568H12.24V21.8664ZM10.6656 10.628C9.68321 10.628 9.04801 9.932 9.04801 9.0712C9.04801 8.1928 9.70241 7.5176 10.7056 7.5176C11.7088 7.5176 12.3232 8.1928 12.3424 9.0712C12.3424 9.932 11.7088 10.628 10.6656 10.628ZM23.6 21.8664H20.4896V16.3192C20.4896 15.028 20.0384 14.1512 18.9136 14.1512C18.0544 14.1512 17.544 14.7448 17.3184 15.316C17.2352 15.5192 17.2144 15.8072 17.2144 16.0936V21.8648H14.1024V15.0488C14.1024 13.7992 14.0624 12.7544 14.0208 11.8552H16.7232L16.8656 13.2456H16.928C17.3376 12.5928 18.3408 11.6296 20.0192 11.6296C22.0656 11.6296 23.6 13.0008 23.6 15.948V21.8664Z" fill="white"/>
</svg>
