<svg width="86" height="87" viewBox="0 0 86 87" fill="none" xmlns="http://www.w3.org/2000/svg">
<g clip-path="url(#clip0_294_1480)">
<path d="M1.8343 42.9796C1.83228 50.2892 3.73503 57.4266 7.35308 63.7176L1.48828 85.212L23.4022 79.4444C29.4633 82.7564 36.2543 84.4919 43.1553 84.4924H43.1734C65.955 84.4924 84.4998 65.8842 84.5095 43.0123C84.5139 31.9292 80.2179 21.5074 72.4128 13.6666C64.6089 5.82651 54.2301 1.50652 43.1717 1.50146C20.3875 1.50146 1.84404 20.1087 1.83463 42.9796" fill="url(#paint0_linear_294_1480)"/>
<path d="M0.359453 42.9659C0.357102 50.5386 2.32805 57.9312 6.07509 64.4474L0 86.7124L22.6996 80.738C28.9541 84.161 35.996 85.9658 43.1616 85.9685H43.1801C66.779 85.9685 85.9899 66.6909 86 43.0003C86.004 31.519 81.5535 20.7225 73.4695 12.6008C65.3845 4.48016 54.6345 0.00472093 43.1801 0C19.5771 0 0.368859 19.2749 0.359453 42.9659ZM13.8779 63.3252L13.0303 61.9747C9.46739 56.288 7.58681 49.7165 7.5895 42.9686C7.59689 23.2772 23.562 7.25674 43.1935 7.25674C52.7005 7.26079 61.6351 10.9809 68.3552 17.7305C75.075 24.4807 78.7726 33.4539 78.7703 42.9976C78.7616 62.6889 62.7961 78.7114 43.1801 78.7114H43.166C36.7788 78.708 30.5145 76.9862 25.0515 73.7325L23.7515 72.9586L10.281 76.5037L13.8779 63.3252Z" fill="url(#paint1_linear_294_1480)"/>
<path d="M32.4776 25.0032C31.676 23.215 30.8325 23.1789 30.0702 23.1475C29.4461 23.1206 28.7325 23.1226 28.0197 23.1226C27.3062 23.1226 26.1468 23.392 25.1669 24.466C24.186 25.5411 21.4219 28.1389 21.4219 33.4227C21.4219 38.7064 25.2559 43.8131 25.7904 44.5303C26.3256 45.2462 33.1921 56.4362 44.0671 60.741C53.1051 64.3184 54.9444 63.6069 56.9059 63.4275C58.8678 63.2488 63.2364 60.8303 64.1276 58.3225C65.0195 55.815 65.0195 53.6657 64.7521 53.2165C64.4847 52.769 63.7712 52.5003 62.7012 51.9634C61.6312 51.4266 56.3708 48.8281 55.3902 48.4696C54.4093 48.1115 53.6961 47.9328 52.9825 49.0081C52.269 50.0818 50.2201 52.5003 49.5956 53.2165C48.9718 53.9344 48.3473 54.0238 47.2776 53.4866C46.207 52.9477 42.7613 51.8151 38.6733 48.1567C35.4926 45.31 33.3453 41.7945 32.7211 40.7192C32.097 39.6455 32.6543 39.0635 33.1908 38.5283C33.6715 38.0471 34.2611 37.2743 34.7966 36.6474C35.33 36.0202 35.5081 35.5727 35.8648 34.8565C36.2219 34.1396 36.0432 33.5124 35.7761 32.9752C35.5081 32.438 33.429 27.1266 32.4776 25.0032Z" fill="white"/>
</g>
<defs>
<linearGradient id="paint0_linear_294_1480" x1="4152.55" y1="8372.55" x2="4152.55" y2="1.50146" gradientUnits="userSpaceOnUse">
<stop stop-color="#1FAF38"/>
<stop offset="1" stop-color="#60D669"/>
</linearGradient>
<linearGradient id="paint1_linear_294_1480" x1="4300" y1="8671.24" x2="4300" y2="0" gradientUnits="userSpaceOnUse">
<stop stop-color="#F9F9F9"/>
<stop offset="1" stop-color="white"/>
</linearGradient>
<clipPath id="clip0_294_1480">
<rect width="86" height="87" fill="white"/>
</clipPath>
</defs>
</svg>
