<svg width="69" height="68" viewBox="0 0 69 68" fill="none" xmlns="http://www.w3.org/2000/svg">
<path d="M54.3333 25.4999C54.3346 22.0855 53.4543 18.7286 51.7778 15.7541C50.1012 12.7796 47.6851 10.2883 44.7634 8.52139C41.8417 6.75447 38.5133 5.77176 35.1004 5.66839C31.6875 5.56503 28.3058 6.3445 25.2825 7.93136C22.2592 9.51821 19.6968 11.8587 17.8433 14.7263C15.9898 17.5938 14.908 20.8914 14.7026 24.2996C14.4972 27.7079 15.1752 31.1115 16.6709 34.1808C18.1667 37.2502 20.4295 39.8815 23.2403 41.8199L14.6667 56.6666L21.0587 56.9301L24.4813 62.3333L34.3017 45.3219L34.5 45.3333C34.5992 45.3389 34.6303 45.3248 34.6983 45.3219L44.5187 62.3333L48.0093 57.0463L54.3333 56.6666L45.7597 41.8199C48.4049 39.9987 50.5675 37.5614 52.0611 34.7183C53.5547 31.8752 54.3346 28.7115 54.3333 25.4999ZM20.3333 25.4999C20.3333 22.698 21.1642 19.9591 22.7208 17.6294C24.2775 15.2997 26.49 13.4839 29.0786 12.4117C31.6673 11.3394 34.5157 11.0589 37.2638 11.6055C40.0118 12.1521 42.5361 13.5014 44.5173 15.4826C46.4986 17.4638 47.8478 19.9881 48.3945 22.7362C48.9411 25.4842 48.6605 28.3327 47.5883 30.9213C46.516 33.5099 44.7003 35.7224 42.3706 37.2791C40.0409 38.8357 37.3019 39.6666 34.5 39.6666C30.7428 39.6666 27.1394 38.1741 24.4826 35.5173C21.8259 32.8605 20.3333 29.2572 20.3333 25.4999Z" fill="#C4AE41"/>
<path d="M34.5 34C39.1944 34 43 30.1944 43 25.5C43 20.8056 39.1944 17 34.5 17C29.8056 17 26 20.8056 26 25.5C26 30.1944 29.8056 34 34.5 34Z" fill="#C4AE41"/>
</svg>
