<svg width="106" height="106" viewBox="0 0 106 106" fill="none" xmlns="http://www.w3.org/2000/svg">
<path fill-rule="evenodd" clip-rule="evenodd" d="M16.7935 0C11.698 0 7.57153 4.12643 7.57153 9.222V43.8234C7.57153 48.9266 11.698 53.0606 16.7935 53.0606H89.2067C94.3022 53.0606 98.4287 48.9266 98.4287 43.8234V9.222C98.4287 4.12643 94.3022 0 89.2067 0H16.7935ZM37.2591 71.4819C37.2591 74.3765 36.1092 77.1526 34.0624 79.1994C32.0156 81.2462 29.2395 82.3961 26.3449 82.3961C23.4503 82.3961 20.6742 81.2462 18.6274 79.1994C16.5806 77.1526 15.4307 74.3765 15.4307 71.4819C15.4307 68.5872 16.5806 65.8112 18.6274 63.7643C20.6742 61.7175 23.4503 60.5676 26.3449 60.5676C29.2395 60.5676 32.0156 61.7175 34.0624 63.7643C36.1092 65.8112 37.2591 68.5872 37.2591 71.4819ZM79.6894 82.3999C82.584 82.3999 85.3601 81.25 87.4069 79.2032C89.4537 77.1563 90.6036 74.3803 90.6036 71.4856C90.6036 68.591 89.4537 65.8149 87.4069 63.7681C85.3601 61.7213 82.584 60.5714 79.6894 60.5714C76.7948 60.5714 74.0187 61.7213 71.9719 63.7681C69.9251 65.8149 68.7752 68.591 68.7752 71.4856C68.7752 74.3803 69.9251 77.1563 71.9719 79.2032C74.0187 81.25 76.7948 82.3999 79.6894 82.3999ZM26.3411 88.2904C22.1614 88.2911 18.117 89.772 14.9251 92.4705C11.7332 95.169 9.60013 98.9107 8.9041 103.032C8.6391 104.637 9.98682 105.97 11.6147 105.97H41.0751C42.703 105.97 44.0507 104.637 43.7857 103.032C43.0894 98.9094 40.9552 95.1667 37.7618 92.468C34.5683 89.7694 30.5221 88.2893 26.3411 88.2904ZM62.2524 103.032C62.9474 98.9091 65.0806 95.1656 68.2733 92.466C71.4661 89.7664 75.5121 88.2852 79.6932 88.2852C83.8743 88.2852 87.9202 89.7664 91.113 92.466C94.3058 95.1656 96.4389 98.9091 97.134 103.032C97.399 104.637 96.0512 105.97 94.4234 105.97H64.963C63.3427 105.97 61.9874 104.637 62.2524 103.032ZM61.5028 16.059C61.5028 18.3141 60.607 20.4768 59.0124 22.0713C57.4179 23.6659 55.2552 24.5617 53.0001 24.5617C50.745 24.5617 48.5823 23.6659 46.9878 22.0713C45.3932 20.4768 44.4974 18.3141 44.4974 16.059C44.4974 13.8039 45.3932 11.6412 46.9878 10.0467C48.5823 8.4521 50.745 7.55629 53.0001 7.55629C55.2552 7.55629 57.4179 8.4521 59.0124 10.0467C60.607 11.6412 61.5028 13.8039 61.5028 16.059ZM38.0465 42.8316C38.6437 39.2976 40.4732 36.0894 43.2105 33.7758C45.9478 31.4622 49.416 30.1929 53.0001 30.1929C56.5842 30.1929 60.0524 31.4622 62.7897 33.7758C65.527 36.0894 67.3565 39.2976 67.9537 42.8316C68.1808 44.2096 67.03 45.3453 65.6368 45.3453H40.3558C38.9627 45.3453 37.8194 44.2096 38.0465 42.8316Z" fill="#C4AE41"/>
</svg>
