<svg width="106" height="106" viewBox="0 0 106 106" fill="none" xmlns="http://www.w3.org/2000/svg">
<path fill-rule="evenodd" clip-rule="evenodd" d="M97.8077 12.2884C97.8077 13.9022 97.4899 15.5001 96.8723 16.991C96.2548 18.4819 95.3496 19.8366 94.2085 20.9777C93.0674 22.1187 91.7128 23.0239 90.2219 23.6415C88.731 24.259 87.133 24.5769 85.5193 24.5769C83.9055 24.5769 82.3076 24.259 80.8167 23.6415C79.3258 23.0239 77.9711 22.1187 76.8301 20.9777C75.689 19.8366 74.7838 18.4819 74.1663 16.991C73.5487 15.5001 73.2309 13.9022 73.2309 12.2884C73.2309 9.02934 74.5255 5.90372 76.8301 3.5992C79.1346 1.29467 82.2602 0 85.5193 0C88.7784 0 91.904 1.29467 94.2085 3.5992C96.513 5.90372 97.8077 9.02934 97.8077 12.2884ZM105.561 50.4257C105.279 51.685 104.576 52.8105 103.569 53.617C102.561 54.4235 101.309 54.8628 100.019 54.8626H53.742C52.236 54.8626 50.7916 54.2643 49.7266 53.1994C48.6617 52.1344 48.0634 50.6901 48.0634 49.184C48.0634 47.6779 48.6617 46.2336 49.7266 45.1686C50.7916 44.1037 52.236 43.5054 53.742 43.5054H65.826C67.1938 38.7636 70.2271 34.6748 74.3685 31.9906C78.5099 29.3065 83.481 28.2074 88.368 28.8954C93.255 29.5834 97.7294 32.0123 100.969 35.7355C104.208 39.4588 105.995 44.2261 106 49.1613C106 49.6201 105.845 50.0655 105.561 50.4257ZM10.2896 25.1674C10.2896 28.804 11.7342 32.2917 14.3057 34.8632C16.8772 37.4347 20.3648 38.8793 24.0014 38.8793C27.638 38.8793 31.1257 37.4347 33.6972 34.8632C36.2687 32.2917 37.7133 28.804 37.7133 25.1674C37.7133 21.5308 36.2687 18.0432 33.6972 15.4717C31.1257 12.9002 27.638 11.4556 24.0014 11.4556C20.3648 11.4556 16.8772 12.9002 14.3057 15.4717C11.7342 18.0432 10.2896 21.5308 10.2896 25.1674ZM0 68.2867C-4.69672e-08 65.1348 0.620815 62.0138 1.827 59.1018C3.03318 56.1898 4.80112 53.5439 7.02986 51.3151C9.25859 49.0864 11.9045 47.3185 14.8165 46.1123C17.7285 44.9061 20.8495 44.2853 24.0014 44.2853C27.1533 44.2853 30.2744 44.9061 33.1864 46.1123C36.0984 47.3185 38.7443 49.0864 40.973 51.3151C43.2017 53.5439 44.9697 56.1898 46.1759 59.1018C47.382 62.0138 48.0029 65.1348 48.0029 68.2867V74.783C48.0029 75.787 47.604 76.7499 46.8941 77.4599C46.1841 78.1699 45.2212 78.5687 44.2171 78.5687H37.7057L34.6923 102.684C34.5779 103.599 34.1332 104.441 33.4416 105.052C32.7501 105.663 31.8594 106 30.9369 106H17.0584C16.1359 106 15.2452 105.663 14.5537 105.052C13.8621 104.441 13.4174 103.599 13.303 102.684L10.282 78.5687H3.78571C2.78168 78.5687 1.81877 78.1699 1.10881 77.4599C0.398851 76.7499 0 75.787 0 74.783V68.2867Z" fill="#C4AE41"/>
</svg>
