<svg width="32" height="31" viewBox="0 0 32 31" fill="none" xmlns="http://www.w3.org/2000/svg">
<path d="M16 0C24.8387 0 32 6.9375 32 15.5C32 24.0625 24.8387 31 16 31C7.16129 31 0 24.0625 0 15.5C0 6.9375 7.16129 0 16 0ZM5.06452 21.1812C5.29032 21.6875 6.23226 22.0562 7.95484 22.3188C8.04516 22.4375 8.11613 22.9312 8.23226 23.3125C8.30323 23.5438 8.47097 23.6812 8.75484 23.6812H8.76774C9.16774 23.6812 9.59355 23.5 10.4323 23.5C11.5677 23.5 11.9613 23.75 12.8452 24.3563C13.7806 25 14.6774 25.55 16.0194 25.4937C17.3742 25.5938 18.5097 24.7938 19.1484 24.3563C20.0387 23.75 20.4258 23.5 21.5613 23.5C22.3677 23.5 22.8774 23.6938 23.2258 23.6938C23.5742 23.6938 23.7097 23.4875 23.7613 23.3188C23.8774 22.9375 23.9484 22.4375 24.0387 22.3188C24.929 22.1875 26.929 21.85 26.9742 20.9813C26.9871 20.7563 26.8258 20.5562 26.5935 20.5187C23.6065 20.0437 22.2645 17.075 22.2065 16.95C22.2065 16.9438 22.2 16.9375 22.1935 16.9312C22.0323 16.6187 22 16.3562 22.0903 16.15C22.3097 15.6562 23.2452 15.4812 23.6387 15.325C24.6581 14.9375 24.8 14.4875 24.7355 14.1812C24.6323 13.65 23.8065 13.3188 23.3226 13.5375C22.9419 13.7125 22.6 13.8 22.3097 13.8C22.0968 13.8 21.9548 13.75 21.8839 13.7125C21.9742 12.2188 22.1871 10.0875 21.6387 8.89375C20.1871 5.75 17.1161 5.5 16.2129 5.5C16.1742 5.5 15.8194 5.49375 15.7806 5.49375C13.5419 5.49375 11.3935 6.60625 10.3419 8.8875C9.79355 10.0813 10.0065 12.2063 10.0968 13.7063C10.0258 13.7438 9.90968 13.7875 9.72903 13.7937C9.45161 13.7812 9.13548 13.6938 8.78065 13.5312C8.52258 13.4125 8.16129 13.4312 7.90323 13.5312C7.49677 13.675 7.23871 13.9562 7.23226 14.275C7.22581 14.6812 7.6 15.0312 8.34194 15.3125C8.43226 15.35 8.54194 15.3812 8.65807 15.4187C9.07742 15.55 9.71613 15.7438 9.88387 16.1375C9.9742 16.3438 9.93549 16.6063 9.78065 16.9188C9.77419 16.925 9.77419 16.9312 9.76774 16.9375C9.70968 17.0625 8.36774 20.0312 5.38065 20.5063C5.12258 20.5688 4.92258 20.85 5.06452 21.1812Z" fill="white"/>
</svg>
