<svg width="69" height="68" viewBox="0 0 69 68" fill="none" xmlns="http://www.w3.org/2000/svg">
<path d="M6.43439 31.4118C6.40042 31.0206 6.44814 30.6266 6.57452 30.2548C6.70091 29.883 6.90319 29.5416 7.16854 29.2521C7.43388 28.9626 7.7565 28.7315 8.11592 28.5733C8.47534 28.4152 8.86371 28.3335 9.25639 28.3334H14.6666C15.4181 28.3334 16.1388 28.6319 16.6701 29.1632C17.2015 29.6946 17.5 30.4153 17.5 31.1667V58.0834C17.5 58.8348 17.2015 59.5555 16.6701 60.0868C16.1388 60.6182 15.4181 60.9167 14.6666 60.9167H11.5981C10.889 60.9169 10.2056 60.6511 9.68283 60.1719C9.1601 59.6927 8.83606 59.0349 8.77472 58.3284L6.43439 31.4118ZM26 30.2813C26 29.0969 26.7366 28.0373 27.8062 27.5329C30.1423 26.4308 34.1217 24.2165 35.9166 21.2231C38.2301 17.3641 38.6664 10.3927 38.7372 8.79612C38.7471 8.57228 38.7415 8.34845 38.7712 8.12745C39.1551 5.3607 44.4946 8.59212 46.5416 12.0091C47.6537 13.8621 47.7954 16.2974 47.6792 18.1999C47.5531 20.2343 46.9567 22.1992 46.3716 24.1514L45.125 28.3121H60.5057C60.9435 28.3121 61.3753 28.4135 61.7673 28.6084C62.1593 28.8033 62.5008 29.0863 62.765 29.4354C63.0292 29.7844 63.2089 30.1899 63.2901 30.6201C63.3713 31.0503 63.3517 31.4934 63.2328 31.9147L55.6253 58.854C55.4574 59.4482 55.0999 59.9712 54.6074 60.3435C54.1149 60.7159 53.5142 60.9171 52.8968 60.9167H28.8333C28.0819 60.9167 27.3612 60.6182 26.8298 60.0868C26.2985 59.5555 26 58.8348 26 58.0834V30.2813Z" fill="#C4AE41" stroke="#C4AE41" stroke-width="4" stroke-linecap="round" stroke-linejoin="round"/>
</svg>
