<svg width="30" height="31" viewBox="0 0 30 31" fill="none" xmlns="http://www.w3.org/2000/svg">
<path d="M15 0.5C12.0333 0.5 9.13319 1.37973 6.66645 3.02796C4.19972 4.67618 2.27713 7.01886 1.14181 9.75975C0.00649926 12.5006 -0.290551 15.5166 0.288228 18.4264C0.867006 21.3361 2.29562 24.0088 4.3934 26.1066C6.49119 28.2044 9.16394 29.633 12.0737 30.2118C14.9834 30.7906 17.9994 30.4935 20.7403 29.3582C23.4812 28.2229 25.8238 26.3003 27.472 23.8336C29.1203 21.3668 30 18.4667 30 15.5C29.996 11.523 28.4144 7.70997 25.6022 4.89778C22.79 2.0856 18.977 0.503971 15 0.5ZM23.9085 12.0695V13.0385C23.9085 13.1127 23.8937 13.1861 23.8649 13.2544C23.836 13.3227 23.7938 13.3846 23.7407 13.4363C23.6875 13.4881 23.6246 13.5286 23.5555 13.5556C23.4864 13.5826 23.4126 13.5955 23.3385 13.5935C21.7547 13.4816 20.2396 12.9033 18.984 11.9315V19.0235C18.9837 19.8084 18.827 20.5854 18.5231 21.3091C18.2192 22.0328 17.7742 22.6887 17.214 23.2385C16.6493 23.8027 15.9776 24.2485 15.2384 24.5499C14.4992 24.8513 13.7072 25.0021 12.909 24.9935C11.3038 24.9912 9.76313 24.3613 8.61601 23.2385C7.88609 22.5026 7.36035 21.5894 7.0905 20.5886C6.82065 19.5879 6.816 18.5341 7.07701 17.531C7.31551 16.568 7.79701 15.683 8.47651 14.9615C8.98325 14.3421 9.62202 13.8438 10.3461 13.5031C11.0702 13.1623 11.8613 12.9877 12.6615 12.992H13.8915V15.5465C13.892 15.6207 13.8768 15.6941 13.8467 15.762C13.8166 15.8298 13.7724 15.8904 13.7171 15.9398C13.6617 15.9892 13.5965 16.0262 13.5257 16.0484C13.4549 16.0706 13.3802 16.0775 13.3065 16.0685C12.5923 15.854 11.8228 15.9251 11.1601 16.267C10.4973 16.6088 9.99322 17.1946 9.75397 17.9008C9.51472 18.6071 9.55904 19.3787 9.87758 20.0529C10.1961 20.7271 10.764 21.2513 11.4615 21.515C11.8665 21.7475 12.3195 21.884 12.7845 21.9155C13.1445 21.9305 13.5045 21.8855 13.8465 21.7775C14.4174 21.5849 14.9141 21.2189 15.2671 20.7306C15.6201 20.2423 15.812 19.656 15.816 19.0535V6.131C15.816 5.98804 15.8727 5.85092 15.9736 5.74969C16.0746 5.64847 16.2115 5.5914 16.3545 5.591H18.477C18.6149 5.59117 18.7475 5.6441 18.8477 5.73893C18.9478 5.83376 19.0078 5.9633 19.0155 6.101C19.0929 6.76284 19.3031 7.40225 19.6335 7.9809C19.964 8.55955 20.4078 9.06552 20.9385 9.4685C21.6557 10.0068 22.5074 10.3369 23.4 10.4225C23.5337 10.4339 23.6587 10.4934 23.7519 10.5899C23.8452 10.6865 23.9002 10.8135 23.907 10.9475L23.9085 12.0695Z" fill="white"/>
</svg>
